<?xml version="1.0" standalone="no"?>
<svg xmlns:xlink="http://www.w3.org/1999/xlink" id="wave" style="transform:rotate(0deg); transition: 0.3s" viewBox="0 0 1440 490" version="1.1" xmlns="http://www.w3.org/2000/svg"><defs><linearGradient id="sw-gradient-0" x1="0" x2="0" y1="1" y2="0"><stop stop-color="rgba(89, 149, 237, 1)" offset="0%"/><stop stop-color="rgba(196.05, 217.364, 248.625, 1)" offset="100%"/></linearGradient></defs><path style="transform:translate(0, 0px); opacity:1" fill="url(#sw-gradient-0)" d="M0,98L48,138.8C96,180,192,261,288,285.8C384,310,480,278,576,294C672,310,768,376,864,383.8C960,392,1056,343,1152,302.2C1248,261,1344,229,1440,196C1536,163,1632,131,1728,138.8C1824,147,1920,196,2016,179.7C2112,163,2208,82,2304,81.7C2400,82,2496,163,2592,204.2C2688,245,2784,245,2880,236.8C2976,229,3072,212,3168,196C3264,180,3360,163,3456,187.8C3552,212,3648,278,3744,277.7C3840,278,3936,212,4032,171.5C4128,131,4224,114,4320,130.7C4416,147,4512,196,4608,204.2C4704,212,4800,180,4896,212.3C4992,245,5088,343,5184,343C5280,343,5376,245,5472,228.7C5568,212,5664,278,5760,277.7C5856,278,5952,212,6048,212.3C6144,212,6240,278,6336,318.5C6432,359,6528,376,6624,343C6720,310,6816,229,6864,187.8L6912,147L6912,490L6864,490C6816,490,6720,490,6624,490C6528,490,6432,490,6336,490C6240,490,6144,490,6048,490C5952,490,5856,490,5760,490C5664,490,5568,490,5472,490C5376,490,5280,490,5184,490C5088,490,4992,490,4896,490C4800,490,4704,490,4608,490C4512,490,4416,490,4320,490C4224,490,4128,490,4032,490C3936,490,3840,490,3744,490C3648,490,3552,490,3456,490C3360,490,3264,490,3168,490C3072,490,2976,490,2880,490C2784,490,2688,490,2592,490C2496,490,2400,490,2304,490C2208,490,2112,490,2016,490C1920,490,1824,490,1728,490C1632,490,1536,490,1440,490C1344,490,1248,490,1152,490C1056,490,960,490,864,490C768,490,672,490,576,490C480,490,384,490,288,490C192,490,96,490,48,490L0,490Z"/></svg>
